<svg xmlns="http://www.w3.org/2000/svg" xmlns:xlink="http://www.w3.org/1999/xlink" version="1.1" data-diagram-type="ACTIVITY" style="width:514px;height:724px;background:#FFFFFF;" width="514px" height="724px" viewBox="0 0 514 724" zoomAndPan="magnify" preserveAspectRatio="none" contentStyleType="text/css"><?plantuml 1.2026.8?><defs/><g font-family="sans-serif" lengthAdjust="spacing"><g class="title" data-source-line="1"><text x="99.758" y="34.966" fill="#000" font-size="14" textLength="313.389" font-weight="700">E2E 5 — Teclado, foco y movimiento reducido</text></g><ellipse cx="255.452" cy="65.068" rx="10" ry="10" fill="#222" style="stroke:#222;stroke-width:1;"/><rect x="95.275" y="95.068" width="320.355" height="39.068" fill="#EEF2FF" style="stroke:#6366F1;stroke-width:0.5;" rx="12.5" ry="12.5"/><text x="105.275" y="120.034" fill="#000" font-size="14" textLength="300.355">Activar prefers-reduced-motion y abrir listado</text><rect x="55.046" y="154.136" width="400.813" height="39.068" fill="#EEF2FF" style="stroke:#6366F1;stroke-width:0.5;" rx="12.5" ry="12.5"/><text x="65.046" y="179.102" fill="#000" font-size="14" textLength="380.813">Tab: saltar contenido, logo oculto, inicio, buscador, tarjeta</text><rect x="146.41" y="213.204" width="218.085" height="58.136" fill="#EEF2FF" style="stroke:#6366F1;stroke-width:0.5;" rx="12.5" ry="12.5"/><text x="156.41" y="238.17" fill="#000" font-size="14" textLength="198.085">Buscador con contorno visible</text><text x="156.41" y="257.238" fill="#000" font-size="14" textLength="117.124">Enter abre detalle</text><rect x="132.69" y="291.34" width="245.525" height="58.136" fill="#EEF2FF" style="stroke:#6366F1;stroke-width:0.5;" rx="12.5" ry="12.5"/><text x="142.69" y="316.306" fill="#000" font-size="14" textLength="87.962">Foco en main</text><text x="142.69" y="335.373" fill="#000" font-size="14" textLength="225.525">animación de entrada desactivada</text><rect x="142.833" y="369.475" width="225.239" height="58.136" fill="#EEF2FF" style="stroke:#6366F1;stroke-width:0.5;" rx="12.5" ry="12.5"/><text x="152.833" y="394.441" fill="#000" font-size="14" textLength="197.161">Tab a color y almacenamiento</text><text x="152.833" y="413.509" fill="#000" font-size="14" textLength="205.239">Enter y flecha seleccionan 2000</text><rect x="177.699" y="447.611" width="155.505" height="77.204" fill="#EEF2FF" style="stroke:#6366F1;stroke-width:0.5;" rx="12.5" ry="12.5"/><text x="187.699" y="472.577" fill="#000" font-size="14" textLength="82.838">Tab a Añadir</text><text x="187.699" y="491.645" fill="#000" font-size="14" textLength="35.168">Enter</text><text x="187.699" y="510.713" fill="#000" font-size="14" textLength="135.505">contador simulado 3</text><rect x="142.105" y="544.815" width="226.695" height="58.136" fill="#EEF2FF" style="stroke:#6366F1;stroke-width:0.5;" rx="12.5" ry="12.5"/><text x="152.105" y="569.781" fill="#000" font-size="14" textLength="103.936">Volver al listado</text><text x="152.105" y="588.849" fill="#000" font-size="14" textLength="206.695">scroll a 700: buscador acoplado</text><rect x="16" y="622.951" width="478.904" height="39.068" fill="#EEF2FF" style="stroke:#6366F1;stroke-width:0.5;" rx="12.5" ry="12.5"/><text x="26" y="647.917" fill="#000" font-size="14" textLength="458.904">Scroll a 500 y foco: buscador visible, sin animación ni desbordamiento</text><ellipse cx="255.452" cy="693.019" rx="11" ry="11" fill="none" style="stroke:#222;stroke-width:1;"/><ellipse cx="255.452" cy="693.019" rx="6" ry="6" fill="#222" style="stroke:#222;stroke-width:1;"/><line x1="255.452" y1="75.068" x2="255.452" y2="95.068" style="stroke:#475569;stroke-width:1;"/><polygon points="251.452,85.068,255.452,95.068,259.452,85.068,255.452,89.068" fill="#475569" style="stroke:#475569;stroke-width:1;stroke-linejoin:miter;stroke-miterlimit:10;"/><line x1="255.452" y1="134.136" x2="255.452" y2="154.136" style="stroke:#475569;stroke-width:1;"/><polygon points="251.452,144.136,255.452,154.136,259.452,144.136,255.452,148.136" fill="#475569" style="stroke:#475569;stroke-width:1;stroke-linejoin:miter;stroke-miterlimit:10;"/><line x1="255.452" y1="193.204" x2="255.452" y2="213.204" style="stroke:#475569;stroke-width:1;"/><polygon points="251.452,203.204,255.452,213.204,259.452,203.204,255.452,207.204" fill="#475569" style="stroke:#475569;stroke-width:1;stroke-linejoin:miter;stroke-miterlimit:10;"/><line x1="255.452" y1="271.34" x2="255.452" y2="291.34" style="stroke:#475569;stroke-width:1;"/><polygon points="251.452,281.34,255.452,291.34,259.452,281.34,255.452,285.34" fill="#475569" style="stroke:#475569;stroke-width:1;stroke-linejoin:miter;stroke-miterlimit:10;"/><line x1="255.452" y1="349.475" x2="255.452" y2="369.475" style="stroke:#475569;stroke-width:1;"/><polygon points="251.452,359.475,255.452,369.475,259.452,359.475,255.452,363.475" fill="#475569" style="stroke:#475569;stroke-width:1;stroke-linejoin:miter;stroke-miterlimit:10;"/><line x1="255.452" y1="427.611" x2="255.452" y2="447.611" style="stroke:#475569;stroke-width:1;"/><polygon points="251.452,437.611,255.452,447.611,259.452,437.611,255.452,441.611" fill="#475569" style="stroke:#475569;stroke-width:1;stroke-linejoin:miter;stroke-miterlimit:10;"/><line x1="255.452" y1="524.815" x2="255.452" y2="544.815" style="stroke:#475569;stroke-width:1;"/><polygon points="251.452,534.815,255.452,544.815,259.452,534.815,255.452,538.815" fill="#475569" style="stroke:#475569;stroke-width:1;stroke-linejoin:miter;stroke-miterlimit:10;"/><line x1="255.452" y1="602.951" x2="255.452" y2="622.951" style="stroke:#475569;stroke-width:1;"/><polygon points="251.452,612.951,255.452,622.951,259.452,612.951,255.452,616.951" fill="#475569" style="stroke:#475569;stroke-width:1;stroke-linejoin:miter;stroke-miterlimit:10;"/><line x1="255.452" y1="662.019" x2="255.452" y2="682.019" style="stroke:#475569;stroke-width:1;"/><polygon points="251.452,672.019,255.452,682.019,259.452,672.019,255.452,676.019" fill="#475569" style="stroke:#475569;stroke-width:1;stroke-linejoin:miter;stroke-miterlimit:10;"/><?plantuml-src XL91Rjim4Bpx5GlawW2A4pkeSt8AwvYBWvvyML4hUnjgro0f6ywfZ-X7YZuXF-bBkhJbG2WCz29IvCpix2mJ9q-md2nX2dz-_8HNSXvh7KEZJk48hUwvPPAa4AZk7DSwYcyiEmpOGeNkRHEqa_ghUWrms7AYmNrD3NO-bIhf1Lk25KfSKU3cEcR5xmHt3uFBk3Kp1vODDEZZK7eHWXxELMyU7gVJsPV19Rh4Uqx7vt_ytIoNvQGiho4rr1HwrEn-DYll1YZx9dQyGqd_bno2hwackn_D5xam1jW5QYZ4srEwLD-scbZ5aiSgS03FXg_rQJH_nMeE4RtHmLbO99pdv7MZeCuIj1yMAsnhrKLdh306Gt-dXCP_xiyo-IIWGHJs7Bdoj9QbAOPSb6mY2RqduvJv4P10YonhGU4M7N_y5eFOSGfOestZAKJRdrq2cdpks7hmHY31ymkw53b2uybj4IBPQePD6IP5KNpo5n-_iERG4zQIxPwyHswx_3xXth3VrE-pPtz9QItH1VNU51wBOluPWqrPT_uSu-g2c1P5Tc8T3e1z76Ch933eLpZtMTau-rwUR8ww-mi0?></g></svg>