<svg xmlns="http://www.w3.org/2000/svg" xmlns:xlink="http://www.w3.org/1999/xlink" version="1.1" data-diagram-type="ACTIVITY" style="width:383px;height:510px;background:#FFFFFF;" width="383px" height="510px" viewBox="0 0 383 510" zoomAndPan="magnify" preserveAspectRatio="none" contentStyleType="text/css"><?plantuml 1.2026.8?><defs/><g font-family="sans-serif" lengthAdjust="spacing"><g class="title" data-source-line="1"><text x="69.294" y="34.966" fill="#000" font-size="14" textLength="243.179" font-weight="700">E2E 7 — Breadcrumb largo a 320 px</text></g><ellipse cx="189.883" cy="65.068" rx="10" ry="10" fill="#222" style="stroke:#222;stroke-width:1;"/><rect x="94.316" y="95.068" width="191.135" height="39.068" fill="#EEF2FF" style="stroke:#6366F1;stroke-width:0.5;" rx="12.5" ry="12.5"/><text x="104.316" y="120.034" fill="#000" font-size="14" textLength="171.135">Fijar viewport 320 por 800</text><rect x="32.891" y="154.136" width="313.985" height="39.068" fill="#EEF2FF" style="stroke:#6366F1;stroke-width:0.5;" rx="12.5" ry="12.5"/><text x="42.891" y="179.102" fill="#000" font-size="14" textLength="293.985">Simular detalle con nombre de modelo largo</text><rect x="19.976" y="213.204" width="339.815" height="39.068" fill="#EEF2FF" style="stroke:#6366F1;stroke-width:0.5;" rx="12.5" ry="12.5"/><text x="29.976" y="238.17" fill="#000" font-size="14" textLength="319.815">Abrir URL del detalle y esperar entrada completa</text><rect x="16" y="272.272" width="347.767" height="39.068" fill="#EEF2FF" style="stroke:#6366F1;stroke-width:0.5;" rx="12.5" ry="12.5"/><text x="26" y="297.238" fill="#000" font-size="14" textLength="327.767">Imagen debajo de la solapa, sin contenido tapado</text><rect x="78.244" y="331.34" width="223.279" height="58.136" fill="#EEF2FF" style="stroke:#6366F1;stroke-width:0.5;" rx="12.5" ry="12.5"/><text x="88.244" y="356.306" fill="#000" font-size="14" textLength="203.279">Sin desbordamiento horizontal</text><text x="88.244" y="375.373" fill="#000" font-size="14" textLength="128.897">axe sin infracciones</text><rect x="51.952" y="409.475" width="275.863" height="39.068" fill="#EEF2FF" style="stroke:#6366F1;stroke-width:0.5;" rx="12.5" ry="12.5"/><text x="61.952" y="434.441" fill="#000" font-size="14" textLength="255.863">Guardar captura del breadcrumb largo</text><ellipse cx="189.883" cy="479.543" rx="11" ry="11" fill="none" style="stroke:#222;stroke-width:1;"/><ellipse cx="189.883" cy="479.543" rx="6" ry="6" fill="#222" style="stroke:#222;stroke-width:1;"/><line x1="189.883" y1="75.068" x2="189.883" y2="95.068" style="stroke:#475569;stroke-width:1;"/><polygon points="185.883,85.068,189.883,95.068,193.883,85.068,189.883,89.068" fill="#475569" style="stroke:#475569;stroke-width:1;stroke-linejoin:miter;stroke-miterlimit:10;"/><line x1="189.883" y1="134.136" x2="189.883" y2="154.136" style="stroke:#475569;stroke-width:1;"/><polygon points="185.883,144.136,189.883,154.136,193.883,144.136,189.883,148.136" fill="#475569" style="stroke:#475569;stroke-width:1;stroke-linejoin:miter;stroke-miterlimit:10;"/><line x1="189.883" y1="193.204" x2="189.883" y2="213.204" style="stroke:#475569;stroke-width:1;"/><polygon points="185.883,203.204,189.883,213.204,193.883,203.204,189.883,207.204" fill="#475569" style="stroke:#475569;stroke-width:1;stroke-linejoin:miter;stroke-miterlimit:10;"/><line x1="189.883" y1="252.272" x2="189.883" y2="272.272" style="stroke:#475569;stroke-width:1;"/><polygon points="185.883,262.272,189.883,272.272,193.883,262.272,189.883,266.272" fill="#475569" style="stroke:#475569;stroke-width:1;stroke-linejoin:miter;stroke-miterlimit:10;"/><line x1="189.883" y1="311.34" x2="189.883" y2="331.34" style="stroke:#475569;stroke-width:1;"/><polygon points="185.883,321.34,189.883,331.34,193.883,321.34,189.883,325.34" fill="#475569" style="stroke:#475569;stroke-width:1;stroke-linejoin:miter;stroke-miterlimit:10;"/><line x1="189.883" y1="389.475" x2="189.883" y2="409.475" style="stroke:#475569;stroke-width:1;"/><polygon points="185.883,399.475,189.883,409.475,193.883,399.475,189.883,403.475" fill="#475569" style="stroke:#475569;stroke-width:1;stroke-linejoin:miter;stroke-miterlimit:10;"/><line x1="189.883" y1="448.543" x2="189.883" y2="468.543" style="stroke:#475569;stroke-width:1;"/><polygon points="185.883,458.543,189.883,468.543,193.883,458.543,189.883,462.543" fill="#475569" style="stroke:#475569;stroke-width:1;stroke-linejoin:miter;stroke-miterlimit:10;"/><?plantuml-src XPAnJWCn38RtFeKbLePIe0Kw5TH3I8Y1Yet5Tt5RGn97Jgu59Xw29-H9S5k4JbKbbWp-F_znVgTmyGJJmHH6yFtv1TTAw1fjGmqUTI60S3heGthhvLUE2HK3rDYyBbJQw6x4Yy9woOKwkgCvjhvK4ii31e8PnZmZvVbXPiOV12Td7J4lqScQumBcw7FNUg8gwzsjHsUZy_FXPKV4fl2Ao_lrtdn7qsargAf3fAWZ_QM6fyDXTTAXx2pSSC9O_hVimeTSY-czgufVK675j4wYPHUjKHVz_hXtDUFGMkYMJK5lMsaaGfHGAra9WZZoijkAmPDQMU7fyTuq_zVo3fGJgPbGB8eEpIGaRwgrt0LSK3IsnXVPM7g4B1uJ7aFckBclK6GdKApcP3lIXi-rlGW3cwV0KfG_Z4J_7F6DjfqSvufDmn8fMzTjYyOhD9XAgxYTiDxxM6EBHD8F?></g></svg>